<svg width="40" height="40" viewBox="0 0 40 40" fill="none" xmlns="http://www.w3.org/2000/svg">
<g clip-path="url(#clip0)">
<path d="M26.6624 39.2848C26.469 39.356 26.2744 39.442 26.0754 39.4775C25.313 39.6163 24.8249 39.2149 24.8204 38.42C24.8103 36.9439 24.8103 35.4701 24.8339 33.9939C24.8586 32.2964 24.8204 30.6207 23.5531 29.2203C24.3065 29.0827 24.9767 28.9863 25.6323 28.8326C29.9752 27.8153 32.231 25.0213 32.5188 20.3842C32.6661 18.0237 32.2535 15.8583 30.7151 13.9991C30.6038 13.8683 30.5982 13.5713 30.651 13.3809C31.0603 11.8439 30.9411 10.3426 30.4643 8.84007C30.3463 8.46502 30.1506 8.34917 29.7874 8.37326C28.5122 8.44552 27.3438 8.90201 26.3138 9.60394C25.3208 10.2841 24.3965 10.432 23.2169 10.1568C20.6192 9.55921 18.0047 9.73355 15.4127 10.346C15.1192 10.4171 14.7245 10.3219 14.4558 10.1614C13.239 9.43419 12.0223 8.72767 10.6189 8.44552C9.53377 8.22989 9.43931 8.28494 9.15143 9.35505C8.78934 10.7039 8.75335 12.0538 9.12332 13.4107C9.17617 13.608 9.12107 13.9245 8.99175 14.0702C6.11637 17.3424 7.15767 23.5257 9.09521 25.8941C10.6021 27.7339 12.6037 28.562 14.8257 28.9921C15.2137 29.0655 15.5994 29.1217 15.9874 29.1905C15.6545 30.0736 15.3554 30.9075 15.0169 31.7276C14.9506 31.8858 14.7403 32.0189 14.5682 32.0854C12.3889 32.9479 10.5155 32.3136 9.26838 30.2962C8.60154 29.2203 7.74579 28.4163 6.47059 28.1835C6.43011 28.1754 6.3885 28.1536 6.35139 28.1594C6.00841 28.2511 5.66881 28.3475 5.32696 28.4415C5.51925 28.7145 5.65532 29.0815 5.91283 29.2455C6.99349 29.9429 7.69631 30.9373 8.16073 32.1106C8.89054 33.9504 10.3074 34.7704 12.1483 34.931C13.0467 35.0056 13.9542 34.9425 14.9382 34.9425C14.9382 36.0848 14.9787 37.3889 14.9213 38.6873C14.8921 39.3869 14.2027 39.6668 13.3774 39.38C11.1879 38.6162 9.15818 37.5208 7.40506 35.9816C1.07517 30.42 -1.36503 23.3892 0.738939 15.1598C2.83616 6.95677 8.30242 1.92508 16.4754 0.34572C27.7846 -1.83579 38.4979 6.56451 39.6201 18.2738C40.5063 27.5045 35.1794 36.1422 26.6624 39.2848ZM16.0008 29.1469C15.9941 29.163 15.9896 29.1744 15.9829 29.1905C16.0031 29.1939 16.0233 29.1974 16.0447 29.2008C16.0604 29.202 16.0739 29.2306 16.0008 29.1469ZM10.8843 32.7954C11.0609 32.9066 11.2295 33.0477 11.4207 33.1085C11.4904 33.1314 11.6197 32.9697 11.848 32.7977C11.5309 32.6749 11.3442 32.5671 11.1474 32.5396C11.071 32.5304 10.972 32.7059 10.8843 32.7954ZM12.4957 33.0775C12.5216 33.198 12.7566 33.3482 12.8949 33.3459C13.0288 33.3436 13.1592 33.1624 13.293 33.0592C13.1716 32.9456 13.0501 32.8355 12.6768 32.4926C12.5958 32.7311 12.462 32.9238 12.4957 33.0775ZM14.4726 32.5924C14.3062 32.6325 14.1656 32.7896 14.0138 32.8974C14.1027 33.0121 14.1915 33.1188 14.3343 33.2989C14.5311 33.1154 14.6649 32.9881 14.7999 32.8642C14.6874 32.7644 14.5558 32.5717 14.4726 32.5924ZM9.572 31.9122C9.66421 32.09 9.80702 32.2437 10.0004 32.4949C10.1298 32.2792 10.2703 32.1141 10.2456 32.0808C10.123 31.9168 9.95658 31.7826 9.7924 31.6599C9.78116 31.6507 9.55288 31.8732 9.572 31.9122Z" fill="black"/>
</g>
<defs>
<clipPath id="clip0">
<rect width="39.7156" height="40" fill="white"/>
</clipPath>
</defs>
</svg>
