<svg width="41" height="39" viewBox="0 0 41 39" fill="none" xmlns="http://www.w3.org/2000/svg">
<path d="M40.1953 19.5C40.1953 30.2696 31.2465 39 20.2077 39C9.16891 39 0.220184 30.2696 0.220184 19.5C0.220184 8.73045 9.16891 0 20.2077 0C31.2465 0 40.1953 8.73045 40.1953 19.5Z" fill="#DC4E41"/>
<path d="M8.50379 20.3872C8.2799 14.4582 13.4431 8.97901 19.3438 8.90793C22.3512 8.64993 25.2771 9.8246 27.553 11.7405C26.6194 12.773 25.6695 13.7935 24.6548 14.749C22.6512 13.5246 20.2388 12.5915 17.8972 13.4202C14.1202 14.5019 11.8329 18.9874 13.2306 22.7038C14.3881 26.5852 19.0818 28.7154 22.7604 27.0848C24.6652 26.3988 25.921 24.6311 26.4721 22.7316C24.2891 22.6879 22.1056 22.7152 19.9225 22.6546C19.9171 21.3482 19.9117 20.0467 19.9171 18.7403C23.5576 18.7348 27.2036 18.7239 30.8495 18.7567C31.0734 21.9576 30.6039 25.3832 28.535 27.9523C25.7021 31.6195 20.4682 32.6957 16.2104 31.2571C11.6916 29.7643 8.40543 25.1854 8.50379 20.3872Z" fill="white"/>
</svg>
