<svg width="670" height="294" viewBox="0 0 670 294" fill="none" xmlns="http://www.w3.org/2000/svg">
<path d="M663.436 49.0568H627.265C624.473 49.1768 621.775 50.0621 619.492 51.6075C617.209 53.1528 615.438 55.2933 614.388 57.7744L606.186 80.3928L599.625 97.9064L590.439 123.274C589.479 126.302 588.187 129.224 586.584 131.991C584.922 129.214 583.601 126.263 582.647 123.195L573.871 97.985C572.149 93.1157 569.278 85.2621 567.474 80.3929L559.272 57.7744C558.216 55.2815 556.433 53.1331 554.134 51.5868C551.835 50.0405 549.12 49.1621 546.313 49.0568H407.208C405.937 49.0568 404.679 49.2965 403.505 49.7623C402.33 50.228 401.263 50.9106 400.365 51.7712C399.466 52.6317 398.753 53.6533 398.267 54.7777C397.78 55.9021 397.53 57.1071 397.53 58.3241V111.179C397.53 113.658 396.502 116.035 394.671 117.788C392.841 119.54 390.358 120.525 387.77 120.525H347.416C344.835 120.504 342.364 119.513 340.539 117.765C338.713 116.017 337.678 113.651 337.656 111.179V58.3241C337.658 55.9328 336.695 53.6332 334.968 51.9061C333.241 50.179 330.883 49.1581 328.388 49.0568H294.76C292.186 49.0567 289.716 50.0306 287.888 51.7663C286.06 53.502 285.022 55.859 285 58.3241V82.7489C302.88 104.582 302.88 144.321 285 203.538V231.732C285.022 234.197 286.06 236.554 287.888 238.29C289.716 240.026 292.186 241 294.76 241H328.388C329.659 241 330.918 240.76 332.092 240.294C333.266 239.829 334.333 239.146 335.232 238.285C336.13 237.425 336.843 236.403 337.33 235.279C337.816 234.154 338.066 232.949 338.066 231.732V174.087C338.064 171.675 339.036 169.355 340.778 167.613C342.521 165.871 344.9 164.842 347.416 164.741H387.77C390.337 164.72 392.807 165.676 394.637 167.4C396.467 169.123 397.508 171.472 397.53 173.929L397.53 174.008V231.654C397.53 234.112 398.55 236.469 400.365 238.207C402.18 239.945 404.641 240.921 407.208 240.921H520.641C523.207 240.921 525.669 239.945 527.484 238.207C529.299 236.469 530.319 234.112 530.319 231.654V207.779C530.319 205.321 529.299 202.964 527.484 201.226C525.669 199.488 523.207 198.512 520.641 198.512H460.439C457.864 198.491 455.403 197.497 453.59 195.747C451.777 193.996 450.76 191.631 450.76 189.166V173.458C450.76 170.993 451.777 168.628 453.59 166.878C455.403 165.127 457.864 164.133 460.439 164.113H496.773C499.34 164.113 501.802 163.136 503.617 161.398C505.432 159.66 506.451 157.303 506.451 154.845V130.97C506.451 128.512 505.432 126.155 503.617 124.417C501.802 122.679 499.34 121.703 496.773 121.703H460.439C457.864 121.682 455.403 120.688 453.59 118.938C451.777 117.188 450.76 114.822 450.76 112.357V100.891C450.739 98.4331 451.737 96.0677 453.537 94.3151C455.337 92.5625 457.79 91.5662 460.356 91.5453L460.439 91.545H509.65C512.507 91.692 515.275 92.5522 517.678 94.0402C520.081 95.5281 522.035 97.592 523.347 100.027L555.253 166.39C557.754 172.013 559.145 178.031 559.354 184.139V231.732C559.354 234.19 560.373 236.547 562.188 238.285C564.003 240.023 566.465 241 569.032 241H602.66C605.226 241.02 607.697 240.064 609.527 238.341C611.357 236.618 612.398 234.269 612.419 231.811L612.42 231.732V184.139C612.641 178.04 614.002 172.029 616.439 166.39L669.095 57.4602C669.688 56.5728 670.002 55.541 670 54.4876C669.998 53.4342 669.68 52.4035 669.084 51.5182C668.488 50.6329 667.638 49.9302 666.637 49.4938C665.636 49.0575 664.525 48.9058 663.436 49.0568V49.0568Z" fill="url(#paint0_linear)"/>
<path d="M237.668 82.0474C224.792 85.3923 213.116 92.0532 203.904 101.309C193.169 65.1447 170.059 10.427 147.522 1.46457C145.14 0.402602 142.527 -0.0946121 139.903 0.0148414C137.279 0.124295 134.72 0.837207 132.443 2.0935C118.348 9.95524 109.169 35.27 117.201 83.2267C86.2233 28.8234 75.4058 28.902 70.4068 28.8234C68.0055 28.8556 65.6673 29.5664 63.6849 30.8669C61.7025 32.1674 60.1638 33.9998 59.2615 36.1348C55.9015 43.2891 49.1815 65.6164 65.5717 113.652C45.8216 87.7079 39.7573 84.4059 32.7915 84.7204C30.5624 84.8465 28.4104 85.5489 26.5637 86.753C24.717 87.9571 23.2443 89.6182 22.3018 91.5601C16.4013 102.252 17.0569 129.139 35.4139 169.234C29.1265 163.912 21.1656 160.757 12.7955 160.272C10.5414 160.423 8.36285 161.114 6.45886 162.282C4.55486 163.449 2.98616 165.055 1.89611 166.954C-5.56144 180.083 10.0912 216.955 29.4315 241.955C45.0841 262.474 76.4712 294 122.036 294C128.415 293.991 134.78 293.412 141.048 292.27C143.228 291.9 145.166 290.715 146.435 288.974C147.704 287.234 148.201 285.082 147.816 282.99C147.432 280.899 146.197 279.039 144.384 277.821C142.571 276.602 140.327 276.124 138.147 276.492C138.048 276.508 137.95 276.527 137.852 276.547C99.991 283.622 71.4721 263.654 54.1805 245.729C28.3661 218.92 17.0569 186.687 16.4013 176.86C21.8101 178.983 37.3807 187.788 67.7024 225.052C68.9848 226.773 70.9269 227.934 73.1015 228.28C75.2762 228.627 77.5053 228.13 79.2985 226.9C81.0916 225.67 82.3018 223.807 82.6629 221.72C83.0241 219.634 82.5066 217.496 81.2243 215.776C38.61 153.746 34.4305 116.167 35.8236 103.51C48.3621 115.774 79.6672 160.743 103.269 194.706C104.455 196.427 106.289 197.641 108.387 198.095C110.486 198.549 112.685 198.207 114.527 197.141C116.368 196.075 117.709 194.367 118.268 192.375C118.827 190.383 118.562 188.26 117.528 186.451C68.358 99.9722 70.0789 60.6635 72.9472 47.4558C80.3227 54.61 99.9089 79.5317 141.13 165.382C142.05 167.237 143.677 168.683 145.677 169.419C147.676 170.156 149.893 170.128 151.872 169.341C153.85 168.553 155.437 167.067 156.305 165.189C157.173 163.311 157.256 161.185 156.537 159.25C116.545 55.0817 133.918 19.7824 140.556 15.7729C149.161 15.7729 173.337 55.5533 188.416 107.677C189.317 110.9 190.219 114.045 191.038 117.111C188.922 120.677 187.271 124.479 186.121 128.432C177.926 157.284 169.731 222.773 185.547 240.776C187.121 242.662 189.157 244.144 191.474 245.091C193.79 246.037 196.316 246.419 198.823 246.201C201.999 245.869 205.058 244.865 207.779 243.261C210.5 241.656 212.816 239.492 214.558 236.924C229.227 216.405 220.622 164.91 208.903 119.862C216.886 109.03 228.43 101.084 241.683 97.2992C244.516 96.4452 247.536 96.3452 250.423 97.0099C253.31 97.6745 255.954 99.0788 258.074 101.073C264.794 108.306 276.512 135.35 240.946 230.713C240.58 231.704 240.421 232.755 240.478 233.805C240.536 234.855 240.808 235.883 241.28 236.833C242.233 238.749 243.94 240.224 246.027 240.933C248.113 241.642 250.408 241.527 252.406 240.613C254.404 239.699 255.941 238.061 256.68 236.059C285.035 160.036 289.461 111.057 270.53 90.4594C266.411 86.2628 261.153 83.2521 255.347 81.766C249.542 80.2799 243.419 80.3773 237.668 82.0474ZM200.79 228.04C200.177 229.096 199.188 229.906 198.004 230.32C191.858 223.323 191.858 181.892 198.578 147.929C211.28 206.656 203.904 223.873 200.79 228.04V228.04Z" fill="url(#paint1_linear)"/>
<defs>
<linearGradient id="paint0_linear" x1="-15.3005" y1="145.003" x2="674.236" y2="145.003" gradientUnits="userSpaceOnUse">
<stop stop-color="#2D6DD0" stop-opacity="0.04"/>
<stop offset="0.99" stop-color="#6C139C" stop-opacity="0.35"/>
</linearGradient>
<linearGradient id="paint1_linear" x1="157519" y1="-9.75147e+06" x2="329065" y2="-9.75147e+06" gradientUnits="userSpaceOnUse">
<stop stop-color="#2D6DD0" stop-opacity="0.12"/>
<stop offset="0.99" stop-color="#6C139C"/>
</linearGradient>
</defs>
</svg>
