<svg width="39" height="38" viewBox="0 0 39 38" fill="none" xmlns="http://www.w3.org/2000/svg">
<g clip-path="url(#clip0)">
<path d="M23.3548 19C23.3548 21.0085 21.6968 22.6367 19.6514 22.6367C17.606 22.6367 15.9479 21.0085 15.9479 19C15.9479 16.9915 17.606 15.3633 19.6514 15.3633C21.6968 15.3633 23.3548 16.9915 23.3548 19Z" fill="url(#paint0_linear)"/>
<path d="M28.3124 12.5656C28.1344 12.0918 27.8504 11.6631 27.4813 11.3111C27.1229 10.9487 26.6866 10.6698 26.2038 10.495C25.8124 10.3457 25.2242 10.168 24.141 10.1195C22.9692 10.0671 22.6179 10.0558 19.6514 10.0558C16.6845 10.0558 16.3332 10.0668 15.1617 10.1192C14.0785 10.168 13.4901 10.3457 13.0989 10.495C12.6162 10.6698 12.1795 10.9487 11.8214 11.3111C11.4523 11.6631 11.1683 12.0916 10.99 12.5656C10.838 12.95 10.657 13.5278 10.6077 14.5915C10.5542 15.7419 10.5427 16.0869 10.5427 19.0003C10.5427 21.9134 10.5542 22.2584 10.6077 23.409C10.657 24.4727 10.838 25.0503 10.99 25.4347C11.1683 25.9087 11.4521 26.3372 11.8211 26.6892C12.1795 27.0516 12.6159 27.3305 13.0986 27.5053C13.4901 27.6549 14.0785 27.8326 15.1617 27.881C16.3332 27.9335 16.6842 27.9445 19.6511 27.9445C22.6182 27.9445 22.9695 27.9335 24.1407 27.881C25.224 27.8326 25.8124 27.6549 26.2038 27.5053C27.1728 27.1382 27.9387 26.3862 28.3124 25.4347C28.4645 25.0503 28.6454 24.4727 28.695 23.409C28.7485 22.2584 28.7597 21.9134 28.7597 19.0003C28.7597 16.0869 28.7485 15.7419 28.695 14.5915C28.6457 13.5278 28.4648 12.95 28.3124 12.5656ZM19.6514 24.6023C16.5003 24.6023 13.9459 22.0943 13.9459 19C13.9459 15.9057 16.5003 13.3976 19.6514 13.3976C22.8021 13.3976 25.3565 15.9057 25.3565 19C25.3565 22.0943 22.8021 24.6023 19.6514 24.6023ZM25.5821 14.4854C24.8458 14.4854 24.2488 13.8992 24.2488 13.1761C24.2488 12.4531 24.8458 11.8669 25.5821 11.8669C26.3184 11.8669 26.9154 12.4531 26.9154 13.1761C26.9151 13.8992 26.3184 14.4854 25.5821 14.4854Z" fill="url(#paint1_linear)"/>
<path d="M19.6514 0C8.96704 0 0.302734 8.50819 0.302734 19C0.302734 29.4918 8.96704 38 19.6514 38C30.3357 38 39 29.4918 39 19C39 8.50819 30.3357 0 19.6514 0ZM30.6947 23.4981C30.6409 24.6595 30.4529 25.4524 30.1783 26.1465C29.6011 27.612 28.4214 28.7705 26.9289 29.3373C26.2224 29.6069 25.4147 29.7913 24.2322 29.8443C23.0475 29.8974 22.669 29.9102 19.6517 29.9102C16.634 29.9102 16.2558 29.8974 15.0708 29.8443C13.8883 29.7913 13.0806 29.6069 12.3741 29.3373C11.6324 29.0633 10.9611 28.6339 10.406 28.0788C9.84094 27.534 9.4037 26.8744 9.1247 26.1465C8.85013 25.4527 8.66206 24.6595 8.60833 23.4984C8.55371 22.3346 8.54102 21.963 8.54102 19C8.54102 16.037 8.55371 15.6654 8.60803 14.5019C8.66177 13.3405 8.84954 12.5476 9.12411 11.8535C9.40311 11.1256 9.84065 10.466 10.406 9.92125C10.9608 9.36606 11.6324 8.93669 12.3738 8.66272C13.0806 8.3931 13.888 8.20871 15.0708 8.15565C16.2555 8.1026 16.634 8.08984 19.6514 8.08984C22.6687 8.08984 23.0472 8.1026 24.232 8.15594C25.4147 8.20871 26.2221 8.3931 26.9289 8.66243C27.6703 8.9364 28.3419 9.36606 28.897 9.92125C29.4621 10.4663 29.8996 11.1256 30.1783 11.8535C30.4532 12.5476 30.6409 13.3405 30.695 14.5019C30.749 15.6654 30.7617 16.037 30.7617 19C30.7617 21.963 30.749 22.3346 30.6947 23.4981Z" fill="url(#paint2_linear)"/>
</g>
<defs>
<linearGradient id="paint0_linear" x1="23" y1="15" x2="16" y2="23" gradientUnits="userSpaceOnUse">
<stop stop-color="#FF0761"/>
<stop offset="1" stop-color="#E42D6F"/>
</linearGradient>
<linearGradient id="paint1_linear" x1="29" y1="10" x2="11" y2="28" gradientUnits="userSpaceOnUse">
<stop stop-color="#FF0761"/>
<stop offset="0.994792" stop-color="#E42D6F"/>
</linearGradient>
<linearGradient id="paint2_linear" x1="34.4174" y1="6" x2="4.8445" y2="32.0321" gradientUnits="userSpaceOnUse">
<stop stop-color="#FF0761"/>
<stop offset="1" stop-color="#E42D6F" stop-opacity="0.97"/>
</linearGradient>
<clipPath id="clip0">
<rect width="38.6972" height="38" fill="white" transform="translate(0.302734)"/>
</clipPath>
</defs>
</svg>
