<svg width="43" height="42" viewBox="0 0 43 42" fill="none" xmlns="http://www.w3.org/2000/svg">
<g clip-path="url(#clip0)">
<path d="M21.4679 41.999C33.2787 41.999 42.8532 32.597 42.8532 20.999C42.8532 9.40101 33.2787 -0.00100708 21.4679 -0.00100708C9.65711 -0.00100708 0.0825806 9.40101 0.0825806 20.999C0.0825806 32.597 9.65711 41.999 21.4679 41.999Z" fill="#007AB9"/>
<path d="M34.2454 22.6894V31.3473H29.1337V23.2696C29.1337 21.2414 28.3957 19.8564 26.5449 19.8564C25.1325 19.8564 24.2935 20.7889 23.9229 21.6918C23.7884 22.0145 23.7537 22.4626 23.7537 22.9151V31.3469H18.6416C18.6416 31.3469 18.7102 17.6661 18.6416 16.2499H23.754V18.3893C23.7438 18.4061 23.7293 18.4226 23.7201 18.4387H23.754V18.3893C24.4334 17.3629 25.6449 15.8954 28.361 15.8954C31.7241 15.8954 34.2454 18.0531 34.2454 22.6894ZM13.2939 8.97266C11.5453 8.97266 10.4013 10.0998 10.4013 11.5807C10.4013 13.0302 11.5121 14.1899 13.2268 14.1899H13.26C15.0429 14.1899 16.1515 13.0302 16.1515 11.5807C16.1176 10.0998 15.0429 8.97266 13.2939 8.97266ZM10.7051 31.3473H15.8153V16.2499H10.7051V31.3473Z" fill="#F1F2F2"/>
</g>
<defs>
<clipPath id="clip0">
<rect width="42.7706" height="42" fill="white" transform="translate(0.0825806)"/>
</clipPath>
</defs>
</svg>
