<svg width="515" height="658" viewBox="0 0 515 658" fill="none" xmlns="http://www.w3.org/2000/svg">
<path d="M202.56 365.95L224.688 448.941C224.688 448.941 225.508 507.43 230.425 530.351C235.343 553.273 251.734 608.6 251.734 608.6L271.404 611.761L267.306 534.303C267.306 534.303 267.306 487.67 263.208 477.395C259.11 467.12 250.915 361.998 250.915 361.998L202.56 365.95Z" fill="#FBBEBE"/>
<path opacity="0.1" d="M201.409 360.401L223.537 443.392C223.537 443.392 224.357 501.88 229.274 524.802C234.192 547.723 250.583 603.05 250.583 603.05L270.253 606.212L266.155 528.754C266.155 528.754 266.155 482.121 262.057 471.846C257.96 461.571 249.764 356.449 249.764 356.449L201.409 360.401Z" fill="black"/>
<path d="M263.911 18.1031H263.91C236.592 18.1031 214.445 41.8054 214.445 71.0437V108.191H226.292L233.151 94.4278L231.436 108.191H307.582L313.817 95.679L312.259 108.191H320.832V79.0238C320.832 45.3782 295.347 18.1031 263.911 18.1031Z" fill="#2F2E41"/>
<path d="M181.661 352.909C181.661 352.909 171.826 393.219 184.939 397.171C198.052 401.123 194.774 352.909 194.774 352.909H181.661Z" fill="#FBBEBE"/>
<path d="M198.052 148.198L191.495 155.311L193.135 292.049L178.382 356.861L211.165 360.023L227.556 229.608L222.64 163.215L198.052 148.198Z" fill="#D0CDE1"/>
<path opacity="0.1" d="M197.755 148.198L191.198 155.311L192.837 292.049L178.085 356.861L210.868 360.023L227.259 229.608L222.342 163.215L197.755 148.198Z" fill="black"/>
<path d="M259.534 103C278.982 103 294.748 87.796 294.748 69.0403C294.748 50.2846 278.982 35.0801 259.534 35.0801C240.086 35.0801 224.32 50.2846 224.32 69.0403C224.32 87.796 240.086 103 259.534 103Z" fill="#FBBEBE"/>
<path d="M239.345 89.4164C239.345 89.4164 249.674 141.036 244.979 146.469C240.284 151.903 294.748 136.508 294.748 136.508C294.748 136.508 276.906 101.189 286.297 81.2659L239.345 89.4164Z" fill="#FBBEBE"/>
<path d="M328.365 315.76C328.365 315.76 338.2 356.07 325.086 360.022C311.973 363.974 315.252 315.76 315.252 315.76H328.365Z" fill="#FBBEBE"/>
<path d="M252.554 356.466C252.554 356.466 238.621 437.085 239.441 448.941C240.26 460.797 239.441 462.378 239.441 462.378C239.441 462.378 225.508 497.155 221.41 516.915C217.312 536.674 208.297 561.967 208.297 561.967C208.297 561.967 197.642 584.888 206.658 584.888C215.673 584.888 227.967 581.727 227.967 581.727C227.934 572.597 231.112 563.726 236.982 556.563C246.817 544.578 276.322 488.461 276.322 481.347C276.322 474.234 281.239 453.684 281.239 453.684L300.089 365.95L252.554 356.466Z" fill="#FBBEBE"/>
<ellipse cx="239" cy="634" rx="239" ry="24" fill="#C5C3CF" fill-opacity="0.87"/>
<path d="M195.183 302.719C195.183 302.719 181.251 370.693 193.544 372.273C205.838 373.854 223.049 361.998 245.178 375.435C267.306 388.872 304.187 385.71 304.187 385.71C304.187 385.71 329.594 323.269 306.646 308.252C283.698 293.235 195.183 302.719 195.183 302.719Z" fill="#2F2E41"/>
<path d="M210.756 575.403C214.363 573.889 218.327 573.343 222.23 573.823C225.964 574.357 229.77 573.51 232.884 571.452C232.884 571.452 226.327 594.373 227.147 603.067C227.967 611.761 224.688 648.91 207.477 644.958C190.266 641.006 185.349 629.15 191.905 608.6C198.462 588.05 196.823 564.338 196.823 564.338C196.823 564.338 208.784 552.423 210.999 554.033C213.214 555.644 210.756 575.403 210.756 575.403Z" fill="#2F2E41"/>
<path d="M265.667 604.648C265.667 604.648 257.471 587.259 247.636 603.067C237.801 618.875 236.982 622.827 236.982 622.827C236.982 622.827 209.116 647.329 228.786 649.7C248.456 652.071 264.028 648.91 264.028 644.958C264.028 641.006 273.863 641.796 274.682 638.635C275.502 635.473 273.043 606.229 273.043 606.229L265.667 604.648Z" fill="#2F2E41"/>
<path d="M284.108 115.792C284.108 115.792 249.685 122.115 245.588 121.325C244.664 121.168 243.731 121.072 242.794 121.039C234.78 120.688 226.832 122.588 219.917 126.51C208.504 132.904 191.496 144.282 191.496 155.312C191.496 171.91 213.624 200.364 213.624 200.364C213.624 200.364 193.135 268.337 194.774 274.66C196.413 280.983 182.48 302.324 191.496 309.437C200.511 316.551 286.566 309.437 302.138 316.551C317.71 323.664 310.334 221.704 310.334 221.704C310.334 221.704 352.132 129.229 330.823 120.534C323.928 117.721 317.977 115.57 313.081 113.947C308.367 112.382 303.376 111.739 298.402 112.056C293.427 112.373 288.567 113.643 284.108 115.792Z" fill="#D0CDE1"/>
<path d="M316.071 121.325L334.877 124.322C334.877 124.322 343.117 132.39 343.117 136.342C343.117 140.294 341.478 311.018 339.019 316.551C336.56 322.084 309.514 319.712 309.514 319.712L314.432 222.495L316.071 121.325Z" fill="#D0CDE1"/>
<path d="M277.973 32.6865C275.592 29.6039 272.508 27.0917 268.958 25.3447C265.408 23.5977 261.489 22.6629 257.504 22.6129H256.533C237.808 22.6129 222.629 38.9529 222.629 59.1094V59.1095H228.903L229.916 51.6717L231.402 59.1095H268.613L271.731 52.817L270.951 59.1095H278.272C281.688 75.4701 276.779 91.8306 263.547 108.191H276.017L282.252 95.6061L280.694 108.191H304.465L309.141 79.2455C309.141 57.5679 296.081 39.1857 277.973 32.6865Z" fill="#2F2E41"/>
<path d="M284.807 35.7345C295.039 35.7345 303.334 27.735 303.334 17.8672C303.334 7.99943 295.039 0 284.807 0C274.575 0 266.28 7.99943 266.28 17.8672C266.28 27.735 274.575 35.7345 284.807 35.7345Z" fill="#2F2E41"/>
<path d="M369.224 579.667C370.04 610.863 353.712 622.295 333.22 622.963C332.744 622.979 332.27 622.988 331.798 622.992C330.848 623 329.907 622.982 328.975 622.939C310.442 622.08 295.773 611.098 295.014 582.087C294.228 552.063 327.612 513.053 330.116 510.168L330.121 510.165C330.216 510.055 330.265 510 330.265 510C330.265 510 368.408 548.474 369.224 579.667Z" fill="#6C63FF"/>
<path d="M331.744 618.236L344.762 596.627L331.771 620.56L331.798 622.992C330.848 623 329.907 622.982 328.975 622.939L329.621 591.683L329.603 591.442L329.627 591.395L329.689 588.442L315.433 565.338L329.672 586.231L329.722 586.855L330.21 563.24L317.897 539.287L330.245 559.092L330.116 510.168L330.116 510.005L330.121 510.165L330.938 548.724L342.16 533.061L330.975 552.046L331.22 573.169L341.546 552.553L331.258 576.274L331.394 588.02L346.411 559.303L331.44 592.117L331.744 618.236Z" fill="#3F3D56"/>
<path d="M404.187 610.34L469.776 501.46L404.321 622.054L404.458 634.305C399.669 634.346 394.928 634.257 390.232 634.038L393.485 476.55L393.396 475.335L393.516 475.1L393.828 460.218L322 343.805L393.743 449.08L393.998 452.226L396.455 333.237L334.415 212.544L396.631 312.334L395.982 65.8205L395.983 65L396.004 65.8069L400.123 260.093L456.665 181.174L400.308 276.83L401.542 383.263L453.572 279.389L401.733 398.91L402.42 458.092L478.086 313.397L402.65 478.738L404.187 610.34Z" fill="#3F3D56"/>
<path d="M496.277 47.5194C495.285 46.406 494.106 45.5219 492.807 44.918C491.508 44.3141 490.116 44.0021 488.709 44C487.302 43.9979 485.909 44.3057 484.609 44.9057C483.308 45.5057 482.127 46.3861 481.132 47.4966C480.138 48.6071 479.349 49.9258 478.811 51.3771C478.274 52.8284 477.998 54.3839 478 55.9543C478.002 57.5248 478.281 59.0794 478.822 60.5291C479.363 61.9788 480.155 63.2951 481.153 64.4025L496.277 81.2856L511.401 64.4025C513.398 62.1617 514.518 59.1282 514.514 55.9674C514.51 52.8065 513.384 49.7763 511.382 47.5412C509.38 45.3062 506.665 44.0487 503.833 44.0446C501.002 44.0406 498.284 45.2902 496.277 47.5194Z" fill="#FF6584" fill-opacity="0.69"/>
<path d="M167.66 637.905C167.66 637.905 151.085 611.129 111 622.707L167.66 637.905Z" fill="#E6E6E6"/>
<path d="M168.66 637.251C168.66 637.251 148.161 614.447 177.747 586L168.66 637.251Z" fill="#E6E6E6"/>
</svg>
