<svg width="301" height="38" viewBox="0 0 301 38" fill="none" xmlns="http://www.w3.org/2000/svg">
<path d="M2.212 25.936C1.804 25.792 1.492 25.54 1.276 25.18C1.06 24.82 0.952 24.412 0.952 23.956C0.952 23.38 1.12 22.828 1.456 22.3C1.792 21.748 2.236 21.376 2.788 21.184L18.844 15.604C19.132 15.508 19.42 15.46 19.708 15.46C20.212 15.46 20.608 15.628 20.896 15.964C21.184 16.3 21.328 16.708 21.328 17.188C21.328 17.644 21.184 18.076 20.896 18.484C20.632 18.868 20.224 19.156 19.672 19.348L7.072 23.596L18.592 27.88C19 28.024 19.312 28.252 19.528 28.564C19.744 28.876 19.852 29.212 19.852 29.572C19.852 30.124 19.648 30.628 19.24 31.084C18.856 31.516 18.364 31.732 17.764 31.732C17.5 31.732 17.212 31.672 16.9 31.552L2.212 25.936ZM52.835 12.544C52.835 14.584 52.307 16.456 51.251 18.16C50.195 19.864 48.659 21.256 46.643 22.336C44.627 23.416 42.227 24.052 39.443 24.244L37.895 32.92C37.295 36.256 35.663 37.924 32.999 37.924C31.535 37.924 30.179 37.492 28.931 36.628C27.707 35.764 26.723 34.444 25.979 32.668C25.235 30.892 24.863 28.708 24.863 26.116C24.863 21.244 25.643 17.116 27.203 13.732C28.787 10.324 30.899 7.78 33.539 6.1C36.203 4.396 39.131 3.544 42.323 3.544C44.579 3.544 46.487 3.94 48.047 4.732C49.631 5.524 50.819 6.604 51.611 7.972C52.427 9.316 52.835 10.84 52.835 12.544ZM40.091 20.536C45.011 19.912 47.471 17.356 47.471 12.868C47.471 11.284 46.943 10 45.887 9.016C44.855 8.008 43.247 7.504 41.063 7.504C38.591 7.504 36.431 8.284 34.583 9.844C32.759 11.404 31.343 13.576 30.335 16.36C29.351 19.12 28.859 22.276 28.859 25.828C28.859 27.316 29.003 28.636 29.291 29.788C29.603 30.94 29.987 31.84 30.443 32.488C30.923 33.112 31.379 33.424 31.811 33.424C32.411 33.424 32.867 32.596 33.179 30.94L34.367 24.136C33.431 23.992 33.023 23.932 33.143 23.956C32.423 23.836 31.955 23.62 31.739 23.308C31.523 22.972 31.415 22.552 31.415 22.048C31.415 21.52 31.559 21.1 31.847 20.788C32.159 20.476 32.579 20.32 33.107 20.32C33.347 20.32 33.527 20.332 33.647 20.356C34.223 20.452 34.667 20.512 34.979 20.536C35.291 18.664 35.735 16.156 36.311 13.012C36.455 12.196 36.779 11.62 37.283 11.284C37.811 10.924 38.423 10.744 39.119 10.744C39.911 10.744 40.475 10.9 40.811 11.212C41.171 11.5 41.351 11.968 41.351 12.616C41.351 13 41.327 13.312 41.279 13.552L40.091 20.536ZM54.3153 34.18C53.4033 34.18 52.7553 33.7 52.3713 32.74C52.0113 31.78 51.8313 30.244 51.8313 28.132C51.8313 25.012 52.2753 22.048 53.1633 19.24C53.3793 18.544 53.7273 18.04 54.2073 17.728C54.7113 17.392 55.4073 17.224 56.2953 17.224C56.7753 17.224 57.1113 17.284 57.3033 17.404C57.4953 17.524 57.5913 17.752 57.5913 18.088C57.5913 18.472 57.4113 19.336 57.0513 20.68C56.8113 21.64 56.6193 22.48 56.4753 23.2C56.3313 23.92 56.2113 24.808 56.1153 25.864C56.9073 23.8 57.7953 22.12 58.7793 20.824C59.7633 19.528 60.7233 18.604 61.6593 18.052C62.6193 17.5 63.4953 17.224 64.2873 17.224C65.8473 17.224 66.6273 18.004 66.6273 19.564C66.6273 19.876 66.5193 20.632 66.3033 21.832C66.1113 22.792 66.0153 23.392 66.0153 23.632C66.0153 24.472 66.3153 24.892 66.9153 24.892C67.5873 24.892 68.4513 24.364 69.5073 23.308C69.8193 22.996 70.1433 22.84 70.4793 22.84C70.7913 22.84 71.0313 22.984 71.1992 23.272C71.3913 23.536 71.4873 23.896 71.4873 24.352C71.4873 25.24 71.2473 25.936 70.7673 26.44C70.0953 27.136 69.3033 27.736 68.3913 28.24C67.5033 28.72 66.5553 28.96 65.5473 28.96C64.2753 28.96 63.3033 28.636 62.6313 27.988C61.9833 27.34 61.6593 26.464 61.6593 25.36C61.6593 25 61.6953 24.64 61.7673 24.28C61.8153 23.8 61.8393 23.476 61.8393 23.308C61.8393 22.924 61.7073 22.732 61.4433 22.732C61.0833 22.732 60.6033 23.14 60.0033 23.956C59.4273 24.748 58.8513 25.804 58.2753 27.124C57.6993 28.444 57.2313 29.836 56.8713 31.3C56.6073 32.428 56.2953 33.196 55.9353 33.604C55.5993 33.988 55.0593 34.18 54.3153 34.18ZM84.1981 25.972C84.5101 25.972 84.7501 26.116 84.9181 26.404C85.1101 26.692 85.2061 27.088 85.2061 27.592C85.2061 28.552 84.9781 29.296 84.5221 29.824C83.6341 30.904 82.3741 31.9 80.7421 32.812C79.1341 33.724 77.4061 34.18 75.5581 34.18C73.0381 34.18 71.0821 33.496 69.6901 32.128C68.2981 30.76 67.6021 28.888 67.6021 26.512C67.6021 24.856 67.9501 23.32 68.6461 21.904C69.3421 20.464 70.3021 19.324 71.5261 18.484C72.7741 17.644 74.1781 17.224 75.7381 17.224C77.1301 17.224 78.2461 17.644 79.0861 18.484C79.9261 19.3 80.3461 20.416 80.3461 21.832C80.3461 23.488 79.7461 24.916 78.5461 26.116C77.3701 27.292 75.3661 28.228 72.5341 28.924C73.1341 30.028 74.2741 30.58 75.9541 30.58C77.0341 30.58 78.2581 30.208 79.6261 29.464C81.0181 28.696 82.2181 27.7 83.2261 26.476C83.5141 26.14 83.8381 25.972 84.1981 25.972ZM75.1261 20.752C74.2381 20.752 73.4821 21.268 72.8581 22.3C72.2581 23.332 71.9581 24.58 71.9581 26.044V26.116C73.3741 25.78 74.4901 25.276 75.3061 24.604C76.1221 23.932 76.5301 23.152 76.5301 22.264C76.5301 21.808 76.3981 21.448 76.1341 21.184C75.8941 20.896 75.5581 20.752 75.1261 20.752ZM84.8309 34.18C83.9189 34.18 83.2709 33.7 82.8869 32.74C82.5269 31.78 82.3469 30.244 82.3469 28.132C82.3469 25.012 82.7909 22.048 83.6789 19.24C83.8949 18.544 84.2429 18.04 84.7229 17.728C85.2269 17.392 85.9229 17.224 86.8109 17.224C87.2909 17.224 87.6269 17.284 87.8189 17.404C88.0109 17.524 88.1069 17.752 88.1069 18.088C88.1069 18.472 87.9269 19.336 87.5669 20.68C87.3269 21.64 87.1349 22.48 86.9909 23.2C86.8469 23.92 86.7269 24.808 86.6309 25.864C87.4229 23.8 88.3109 22.12 89.2949 20.824C90.2789 19.528 91.2389 18.604 92.1749 18.052C93.1349 17.5 94.0109 17.224 94.8029 17.224C96.3629 17.224 97.1429 18.004 97.1429 19.564C97.1429 19.876 97.0349 20.632 96.8189 21.832C96.6269 22.792 96.5309 23.392 96.5309 23.632C96.5309 24.472 96.8309 24.892 97.4309 24.892C98.1029 24.892 98.9669 24.364 100.023 23.308C100.335 22.996 100.659 22.84 100.995 22.84C101.307 22.84 101.547 22.984 101.715 23.272C101.907 23.536 102.003 23.896 102.003 24.352C102.003 25.24 101.763 25.936 101.283 26.44C100.611 27.136 99.8189 27.736 98.9069 28.24C98.0189 28.72 97.0709 28.96 96.0629 28.96C94.7909 28.96 93.8189 28.636 93.1469 27.988C92.4989 27.34 92.1749 26.464 92.1749 25.36C92.1749 25 92.2109 24.64 92.2829 24.28C92.3309 23.8 92.3549 23.476 92.3549 23.308C92.3549 22.924 92.2229 22.732 91.9589 22.732C91.5989 22.732 91.1189 23.14 90.5189 23.956C89.9429 24.748 89.3669 25.804 88.7909 27.124C88.2149 28.444 87.7469 29.836 87.3869 31.3C87.1229 32.428 86.8109 33.196 86.4509 33.604C86.1149 33.988 85.5749 34.18 84.8309 34.18ZM101.214 34.18C100.302 34.18 99.6537 33.7 99.2697 32.74C98.9097 31.78 98.7297 30.244 98.7297 28.132C98.7297 25.012 99.1737 22.048 100.062 19.24C100.278 18.544 100.626 18.04 101.106 17.728C101.61 17.392 102.306 17.224 103.194 17.224C103.674 17.224 104.01 17.284 104.202 17.404C104.394 17.524 104.49 17.752 104.49 18.088C104.49 18.472 104.31 19.336 103.95 20.68C103.71 21.64 103.518 22.48 103.374 23.2C103.23 23.92 103.11 24.808 103.014 25.864C103.806 23.8 104.694 22.12 105.678 20.824C106.662 19.528 107.622 18.604 108.558 18.052C109.518 17.5 110.394 17.224 111.186 17.224C112.746 17.224 113.526 18.004 113.526 19.564C113.526 20.5 113.262 22.192 112.734 24.64C112.278 26.728 112.05 28.108 112.05 28.78C112.05 29.74 112.398 30.22 113.094 30.22C113.574 30.22 114.138 29.932 114.786 29.356C115.458 28.756 116.346 27.796 117.45 26.476C117.738 26.14 118.062 25.972 118.422 25.972C118.734 25.972 118.974 26.116 119.142 26.404C119.334 26.692 119.43 27.088 119.43 27.592C119.43 28.552 119.202 29.296 118.746 29.824C117.714 31.096 116.598 32.14 115.398 32.956C114.222 33.772 112.878 34.18 111.366 34.18C110.142 34.18 109.218 33.832 108.594 33.136C107.97 32.416 107.658 31.384 107.658 30.04C107.658 29.368 107.826 28.168 108.162 26.44C108.474 24.928 108.63 23.884 108.63 23.308C108.63 22.924 108.498 22.732 108.234 22.732C107.922 22.732 107.478 23.14 106.902 23.956C106.35 24.748 105.774 25.804 105.174 27.124C104.598 28.444 104.13 29.836 103.77 31.3C103.506 32.428 103.194 33.196 102.834 33.604C102.498 33.988 101.958 34.18 101.214 34.18ZM120.657 34.18C119.289 34.18 118.173 33.64 117.309 32.56C116.469 31.48 116.049 30.064 116.049 28.312C116.049 26.392 116.493 24.58 117.381 22.876C118.269 21.148 119.445 19.768 120.909 18.736C122.397 17.68 123.969 17.152 125.625 17.152C126.153 17.152 126.501 17.26 126.669 17.476C126.861 17.668 127.017 18.028 127.137 18.556C127.593 18.46 128.097 18.412 128.649 18.412C129.225 18.412 129.669 18.556 129.981 18.844C130.293 19.132 130.449 19.54 130.449 20.068C130.449 20.62 130.329 21.58 130.089 22.948C129.825 24.412 129.621 25.816 129.477 27.16C129.333 28.48 129.261 29.968 129.261 31.624C129.261 32.536 129.069 33.196 128.685 33.604C128.325 33.988 127.725 34.18 126.885 34.18C126.069 34.18 125.457 33.988 125.049 33.604C124.665 33.196 124.473 32.548 124.473 31.66L124.509 31.084C123.765 33.148 122.481 34.18 120.657 34.18ZM122.061 30.544C122.733 30.544 123.345 30.076 123.897 29.14C124.449 28.204 124.941 26.536 125.373 24.136L126.057 20.5C125.073 20.524 124.161 20.908 123.321 21.652C122.481 22.372 121.809 23.332 121.305 24.532C120.801 25.732 120.549 27.004 120.549 28.348C120.549 29.068 120.681 29.62 120.945 30.004C121.233 30.364 121.605 30.544 122.061 30.544ZM149.157 34.18C148.269 34.18 147.633 33.988 147.249 33.604C146.865 33.196 146.673 32.44 146.673 31.336C146.673 30.592 146.745 29.644 146.889 28.492C147.057 27.316 147.321 25.708 147.681 23.668C148.305 19.9 148.797 16.636 149.157 13.876C149.373 12.148 149.481 10.708 149.481 9.556C149.481 8.476 149.085 7.936 148.293 7.936C147.669 7.936 146.913 8.26 146.025 8.908C145.161 9.532 144.201 10.54 143.145 11.932C142.809 12.388 142.437 12.616 142.029 12.616C141.693 12.616 141.393 12.46 141.129 12.148C140.889 11.812 140.769 11.44 140.769 11.032C140.769 10.648 140.841 10.264 140.985 9.88C141.153 9.472 141.417 9.016 141.777 8.512C142.929 6.904 144.213 5.668 145.629 4.804C147.045 3.916 148.461 3.472 149.877 3.472C151.197 3.472 152.205 3.892 152.901 4.732C153.621 5.572 153.981 6.796 153.981 8.404C153.981 9.052 153.921 9.82 153.801 10.708C153.681 11.572 153.573 12.28 153.477 12.832C153.381 13.384 153.309 13.768 153.261 13.984C154.629 10.072 156.165 7.348 157.869 5.812C159.573 4.252 161.445 3.472 163.485 3.472C165.045 3.472 166.269 4.024 167.157 5.128C168.069 6.232 168.525 7.792 168.525 9.808C168.525 10.6 168.417 11.584 168.201 12.76C169.401 9.448 170.805 7.072 172.413 5.632C174.021 4.192 175.869 3.472 177.957 3.472C179.637 3.472 180.921 4.012 181.809 5.092C182.721 6.172 183.177 7.684 183.177 9.628C183.177 10.684 183.021 11.968 182.709 13.48L180.513 23.776C180.273 24.976 180.153 26.008 180.153 26.872C180.153 27.88 180.381 28.636 180.837 29.14C181.317 29.644 181.977 29.896 182.817 29.896C183.609 29.896 184.377 29.632 185.121 29.104C185.889 28.576 186.789 27.7 187.821 26.476C188.109 26.14 188.433 25.972 188.793 25.972C189.105 25.972 189.345 26.116 189.513 26.404C189.705 26.692 189.801 27.088 189.801 27.592C189.801 28.528 189.573 29.272 189.117 29.824C187.869 31.336 186.633 32.44 185.409 33.136C184.185 33.832 182.901 34.18 181.557 34.18C179.517 34.18 177.921 33.58 176.769 32.38C175.617 31.156 175.041 29.524 175.041 27.484C175.041 26.068 175.329 24.016 175.905 21.328L177.345 14.74C177.393 14.524 177.477 14.14 177.597 13.588C177.717 13.036 177.813 12.52 177.885 12.04C177.957 11.536 177.993 11.044 177.993 10.564C177.993 9.724 177.825 9.1 177.489 8.692C177.177 8.26 176.721 8.044 176.121 8.044C174.993 8.044 173.805 8.776 172.557 10.24C171.333 11.68 170.157 14.08 169.029 17.44C167.925 20.8 167.025 25.168 166.329 30.544C166.161 31.984 165.861 32.956 165.429 33.46C165.021 33.94 164.349 34.18 163.413 34.18C162.597 34.18 161.997 33.988 161.613 33.604C161.253 33.22 161.073 32.5 161.073 31.444C161.073 30.46 161.205 29.176 161.469 27.592C161.733 25.984 162.069 24.1 162.477 21.94C163.581 16.132 164.133 12.388 164.133 10.708C164.133 9.796 163.953 9.124 163.593 8.692C163.257 8.26 162.741 8.044 162.045 8.044C160.869 8.044 159.657 8.716 158.409 10.06C157.161 11.38 155.937 13.744 154.737 17.152C153.561 20.536 152.577 25.12 151.785 30.904C151.617 32.128 151.365 32.98 151.029 33.46C150.717 33.94 150.093 34.18 149.157 34.18ZM202.956 25.972C203.268 25.972 203.508 26.116 203.676 26.404C203.868 26.692 203.964 27.088 203.964 27.592C203.964 28.552 203.736 29.296 203.28 29.824C202.392 30.904 201.132 31.9 199.5 32.812C197.892 33.724 196.164 34.18 194.316 34.18C191.796 34.18 189.84 33.496 188.448 32.128C187.056 30.76 186.36 28.888 186.36 26.512C186.36 24.856 186.708 23.32 187.404 21.904C188.1 20.464 189.06 19.324 190.284 18.484C191.532 17.644 192.936 17.224 194.496 17.224C195.888 17.224 197.004 17.644 197.844 18.484C198.684 19.3 199.104 20.416 199.104 21.832C199.104 23.488 198.504 24.916 197.304 26.116C196.128 27.292 194.124 28.228 191.292 28.924C191.892 30.028 193.032 30.58 194.712 30.58C195.792 30.58 197.016 30.208 198.384 29.464C199.776 28.696 200.976 27.7 201.984 26.476C202.272 26.14 202.596 25.972 202.956 25.972ZM193.884 20.752C192.996 20.752 192.24 21.268 191.616 22.3C191.016 23.332 190.716 24.58 190.716 26.044V26.116C192.132 25.78 193.248 25.276 194.064 24.604C194.88 23.932 195.288 23.152 195.288 22.264C195.288 21.808 195.156 21.448 194.892 21.184C194.652 20.896 194.316 20.752 193.884 20.752ZM221.013 25.972C221.325 25.972 221.565 26.116 221.733 26.404C221.925 26.692 222.021 27.088 222.021 27.592C222.021 28.552 221.793 29.296 221.337 29.824C220.233 31.096 219.093 32.14 217.917 32.956C216.765 33.772 215.445 34.18 213.957 34.18C212.733 34.18 211.809 33.832 211.185 33.136C210.561 32.416 210.249 31.384 210.249 30.04C210.249 29.368 210.417 28.168 210.753 26.44C211.065 24.928 211.221 23.884 211.221 23.308C211.221 22.924 211.089 22.732 210.825 22.732C210.513 22.732 210.069 23.14 209.493 23.956C208.917 24.748 208.341 25.804 207.765 27.124C207.189 28.444 206.721 29.836 206.361 31.3C205.905 33.22 204.777 34.18 202.977 34.18C202.257 34.18 201.777 33.928 201.537 33.424C201.321 32.896 201.213 31.96 201.213 30.616C201.213 29.848 201.225 29.236 201.249 28.78L201.285 25.9C201.285 22.204 201.657 18.352 202.401 14.344C203.169 10.336 204.285 6.976 205.749 4.264C207.237 1.528 209.013 0.159998 211.077 0.159998C212.181 0.159998 213.069 0.639998 213.741 1.6C214.437 2.536 214.785 3.76 214.785 5.272C214.785 7.696 214.077 10.216 212.661 12.832C211.245 15.424 208.941 18.46 205.749 21.94C205.677 23.188 205.641 24.472 205.641 25.792C206.433 23.752 207.309 22.096 208.269 20.824C209.253 19.528 210.213 18.604 211.149 18.052C212.109 17.5 212.985 17.224 213.777 17.224C215.337 17.224 216.117 18.004 216.117 19.564C216.117 20.5 215.853 22.192 215.325 24.64C214.869 26.728 214.641 28.108 214.641 28.78C214.641 29.74 214.989 30.22 215.685 30.22C216.165 30.22 216.729 29.932 217.377 29.356C218.049 28.756 218.937 27.796 220.041 26.476C220.329 26.14 220.653 25.972 221.013 25.972ZM210.321 3.724C209.889 3.724 209.409 4.348 208.881 5.596C208.353 6.82 207.837 8.488 207.333 10.6C206.853 12.688 206.457 14.968 206.145 17.44C207.633 15.688 208.857 13.78 209.817 11.716C210.801 9.652 211.293 7.78 211.293 6.1C211.293 5.332 211.209 4.744 211.041 4.336C210.873 3.928 210.633 3.724 210.321 3.724ZM221.659 34.18C220.747 34.18 220.099 33.7 219.715 32.74C219.355 31.78 219.175 30.244 219.175 28.132C219.175 25.012 219.619 22.048 220.507 19.24C220.723 18.544 221.071 18.04 221.551 17.728C222.055 17.392 222.751 17.224 223.639 17.224C224.119 17.224 224.455 17.284 224.647 17.404C224.839 17.524 224.935 17.752 224.935 18.088C224.935 18.472 224.755 19.336 224.395 20.68C224.155 21.64 223.963 22.48 223.819 23.2C223.675 23.92 223.555 24.808 223.459 25.864C224.251 23.8 225.139 22.12 226.123 20.824C227.107 19.528 228.067 18.604 229.003 18.052C229.963 17.5 230.839 17.224 231.631 17.224C233.191 17.224 233.971 18.004 233.971 19.564C233.971 19.876 233.863 20.632 233.647 21.832C233.455 22.792 233.359 23.392 233.359 23.632C233.359 24.472 233.659 24.892 234.259 24.892C234.931 24.892 235.795 24.364 236.851 23.308C237.163 22.996 237.487 22.84 237.823 22.84C238.135 22.84 238.375 22.984 238.543 23.272C238.735 23.536 238.831 23.896 238.831 24.352C238.831 25.24 238.591 25.936 238.111 26.44C237.439 27.136 236.647 27.736 235.735 28.24C234.847 28.72 233.899 28.96 232.891 28.96C231.619 28.96 230.647 28.636 229.975 27.988C229.327 27.34 229.003 26.464 229.003 25.36C229.003 25 229.039 24.64 229.111 24.28C229.159 23.8 229.183 23.476 229.183 23.308C229.183 22.924 229.051 22.732 228.787 22.732C228.427 22.732 227.947 23.14 227.347 23.956C226.771 24.748 226.195 25.804 225.619 27.124C225.043 28.444 224.575 29.836 224.215 31.3C223.951 32.428 223.639 33.196 223.279 33.604C222.943 33.988 222.403 34.18 221.659 34.18ZM239.626 34.18C238.258 34.18 237.142 33.64 236.278 32.56C235.438 31.48 235.018 30.064 235.018 28.312C235.018 26.392 235.462 24.58 236.35 22.876C237.238 21.148 238.414 19.768 239.878 18.736C241.366 17.68 242.938 17.152 244.594 17.152C245.122 17.152 245.47 17.26 245.638 17.476C245.83 17.668 245.986 18.028 246.106 18.556C246.562 18.46 247.066 18.412 247.618 18.412C248.194 18.412 248.638 18.556 248.95 18.844C249.262 19.132 249.418 19.54 249.418 20.068C249.418 20.62 249.298 21.58 249.058 22.948C248.794 24.412 248.59 25.816 248.446 27.16C248.302 28.48 248.23 29.968 248.23 31.624C248.23 32.536 248.038 33.196 247.654 33.604C247.294 33.988 246.694 34.18 245.854 34.18C245.038 34.18 244.426 33.988 244.018 33.604C243.634 33.196 243.442 32.548 243.442 31.66L243.478 31.084C242.734 33.148 241.45 34.18 239.626 34.18ZM241.03 30.544C241.702 30.544 242.314 30.076 242.866 29.14C243.418 28.204 243.91 26.536 244.342 24.136L245.026 20.5C244.042 20.524 243.13 20.908 242.29 21.652C241.45 22.372 240.778 23.332 240.274 24.532C239.77 25.732 239.518 27.004 239.518 28.348C239.518 29.068 239.65 29.62 239.914 30.004C240.202 30.364 240.574 30.544 241.03 30.544ZM262.185 34.18C261.633 34.18 261.141 33.988 260.709 33.604C260.301 33.196 260.097 32.668 260.097 32.02C260.097 31.492 260.265 30.916 260.601 30.292L275.685 1.96C275.973 1.408 276.297 0.999999 276.657 0.735999C277.041 0.471998 277.425 0.339998 277.809 0.339998C278.361 0.339998 278.829 0.567998 279.213 1.024C279.621 1.456 279.825 1.996 279.825 2.644C279.825 3.172 279.693 3.664 279.429 4.12L264.021 33.028C263.805 33.412 263.529 33.7 263.193 33.892C262.881 34.084 262.545 34.18 262.185 34.18ZM282.986 31.552C282.698 31.648 282.41 31.696 282.122 31.696C281.618 31.696 281.222 31.528 280.934 31.192C280.646 30.856 280.502 30.448 280.502 29.968C280.502 29.512 280.634 29.092 280.898 28.708C281.186 28.3 281.606 28 282.158 27.808L294.758 23.56L283.238 19.276C282.83 19.132 282.518 18.904 282.302 18.592C282.086 18.28 281.978 17.944 281.978 17.584C281.978 17.032 282.17 16.54 282.554 16.108C282.962 15.652 283.466 15.424 284.066 15.424C284.33 15.424 284.618 15.484 284.93 15.604L299.618 21.22C300.026 21.364 300.338 21.616 300.554 21.976C300.77 22.336 300.878 22.744 300.878 23.2C300.878 23.776 300.71 24.34 300.374 24.892C300.038 25.42 299.594 25.78 299.042 25.972L282.986 31.552Z" fill="#53D226"/>
</svg>
